<svg xmlns="http://www.w3.org/2000/svg" xmlns:xlink="http://www.w3.org/1999/xlink" width="200" height="200" version="1.1" viewBox="0 0 200 200"><title>Community</title><defs><linearGradient id="linearGradient-1" x1="50%" x2="50%" y1="0%" y2="100%"><stop offset="0%" stop-color="#151618"/><stop offset="100%" stop-color="#FFF"/></linearGradient><linearGradient id="linearGradient-2" x1="50%" x2="50%" y1="0%" y2="100%"><stop offset="0%" stop-color="#FF4746"/><stop offset="100%" stop-color="#FF1F75"/></linearGradient><path id="path-3" d="M101,32 C112.045695,32 121,40.954305 121,52 C121,63.045695 112.045695,72 101,72 C89.954305,72 81,63.045695 81,52 C81,40.954305 89.954305,32 101,32 Z"/><filter id="filter-4" width="400%" height="400%" x="-150%" y="-150%" filterUnits="objectBoundingBox"><feOffset dx="0" dy="0" in="SourceAlpha" result="shadowOffsetOuter1"/><feGaussianBlur in="shadowOffsetOuter1" result="shadowBlurOuter1" stdDeviation="20"/><feColorMatrix in="shadowBlurOuter1" type="matrix" values="0 0 0 0 1 0 0 0 0 0.278431373 0 0 0 0 0.274509804 0 0 0 0.24 0"/></filter><path id="path-5" d="M55,116 C66.045695,116 75,124.954305 75,136 C75,147.045695 66.045695,156 55,156 C43.954305,156 35,147.045695 35,136 C35,124.954305 43.954305,116 55,116 Z"/><filter id="filter-6" width="400%" height="400%" x="-150%" y="-150%" filterUnits="objectBoundingBox"><feOffset dx="0" dy="0" in="SourceAlpha" result="shadowOffsetOuter1"/><feGaussianBlur in="shadowOffsetOuter1" result="shadowBlurOuter1" stdDeviation="20"/><feColorMatrix in="shadowBlurOuter1" type="matrix" values="0 0 0 0 1 0 0 0 0 0.278431373 0 0 0 0 0.274509804 0 0 0 0.24 0"/></filter><path id="path-7" d="M145,116 C156.045695,116 165,124.954305 165,136 C165,147.045695 156.045695,156 145,156 C133.954305,156 125,147.045695 125,136 C125,124.954305 133.954305,116 145,116 Z"/><filter id="filter-8" width="400%" height="400%" x="-150%" y="-150%" filterUnits="objectBoundingBox"><feOffset dx="0" dy="0" in="SourceAlpha" result="shadowOffsetOuter1"/><feGaussianBlur in="shadowOffsetOuter1" result="shadowBlurOuter1" stdDeviation="20"/><feColorMatrix in="shadowBlurOuter1" type="matrix" values="0 0 0 0 1 0 0 0 0 0.278431373 0 0 0 0 0.274509804 0 0 0 0.24 0"/></filter></defs><g id="Community" fill="none" fill-rule="evenodd" stroke="none" stroke-width="1"><path id="Rectangle" fill="url(#linearGradient-1)" d="M101,44 C66.7583455,44 39,71.7583455 39,106 C39,140.241654 66.7583455,168 101,168 C135.241654,168 163,140.241654 163,106 C163,71.7583455 135.241654,44 101,44 Z M101,60 C126.405098,60 147,80.5949015 147,106 C147,131.405098 126.405098,152 101,152 C75.5949015,152 55,131.405098 55,106 C55,80.5949015 75.5949015,60 101,60 Z" opacity=".4"/><g id="Rectangle"><use fill="#000" fill-opacity="1" filter="url(#filter-4)" xlink:href="#path-3"/><use fill="url(#linearGradient-2)" fill-rule="evenodd" xlink:href="#path-3"/></g><g id="Rectangle"><use fill="#000" fill-opacity="1" filter="url(#filter-6)" xlink:href="#path-5"/><use fill="url(#linearGradient-2)" fill-rule="evenodd" xlink:href="#path-5"/></g><g id="Rectangle"><use fill="#000" fill-opacity="1" filter="url(#filter-8)" xlink:href="#path-7"/><use fill="url(#linearGradient-2)" fill-rule="evenodd" xlink:href="#path-7"/></g></g></svg>